<?xml version="1.0" encoding="UTF-8" standalone="no"?>
<svg width="42px" height="51px" viewBox="0 0 42 51" version="1.1" xmlns="http://www.w3.org/2000/svg" xmlns:xlink="http://www.w3.org/1999/xlink" xmlns:sketch="http://www.bohemiancoding.com/sketch/ns">
    <!-- Generator: Sketch 3.5.1 (25234) - http://www.bohemiancoding.com/sketch -->
    <title>github</title>
    <desc>Created with Sketch.</desc>
    <defs></defs>
    <g id="Page-1" stroke="none" stroke-width="1" fill="none" fill-rule="evenodd" sketch:type="MSPage">
        <g id="github" sketch:type="MSLayerGroup" fill="#C9D6DF">
            <g id="Page-1" sketch:type="MSShapeGroup">
                <g id="socials">
                    <path d="M41.5,18.6 C41.5,26.9 32.8,33.6 22,33.6 C11.2,33.6 2.5,26.9 2.5,18.6 C2.5,15.4 3.8,12.4 6.1,9.9 C4.8,7.3 5.1,2 6.5,0.7 C7.7,-0.4 12.1,3.4 13.8,4.9 C16.3,4 19,3.5 22,3.5 C24.6,3.5 27.1,3.9 29.4,4.6 C31.3,2.9 35.3,-0.4 36.5,0.6 C37.7,1.8 38.2,6.3 37.2,9.1 C39.9,11.8 41.5,15 41.5,18.6 L41.5,18.6 L41.5,18.6 Z M27.5,33.6 C27.5,33.6 29.6,33.8 29.5,37.6 L29.5,46.6 C29.5,46.6 30.3,48.2 31.5,48.6 C31.5,48.6 32.6,49.5 30.5,49.6 C30.5,49.6 28.4,49.7 27.5,48.6 C26.6,47.5 26.5,46.6 26.5,45.6 L26.5,39.6 C26.5,39.6 25.8,37.6 25.5,39.6 L25.5,45.6 L25.5,47.6 C25.5,47.6 25.8,49.8 27.5,50.6 C27.5,50.6 23.8,51.5 22.5,46.6 L22.5,39.6 C22.1,38.4 21.5,39.6 21.5,39.6 L21.5,46.6 C20.2,51.5 16.5,50.6 16.5,50.6 C18.2,49.8 18.5,47.6 18.5,47.6 L18.5,45.6 L18.5,39.6 C18.2,37.6 17.5,39.6 17.5,39.6 L17.5,45.6 C17.5,46.6 17.4,47.5 16.5,48.6 C15.6,49.7 13.5,49.6 13.5,49.6 C11.4,49.5 12.5,48.6 12.5,48.6 C13.7,48.2 14.5,46.6 14.5,46.6 L14.5,42.6 C14.2,40.6 10.1,41.2 8.5,40.6 C6.9,40 4.2,36.3 3.5,33.6 C2.8,30.9 0.5,32.6 0.5,32.6 C2.2,29.4 4.5,31.6 4.5,31.6 C9.5,39.5 14.5,36.6 14.5,36.6 L14.5,37.2 C14.6,33.8 16.5,33.6 16.5,33.6 L21.5,33.6 L22,33.6 L22.5,33.6 L27.5,33.6 L27.5,33.6 L27.5,33.6 Z" id="Shape"></path>
                </g>
            </g>
        </g>
    </g>
</svg>