<?xml version="1.0" encoding="UTF-8" standalone="no"?>
<svg width="42px" height="51px" viewBox="0 0 42 51" version="1.1" xmlns="http://www.w3.org/2000/svg" xmlns:xlink="http://www.w3.org/1999/xlink" xmlns:sketch="http://www.bohemiancoding.com/sketch/ns">
    <!-- Generator: Sketch 3.4.4 (17249) - http://www.bohemiancoding.com/sketch -->
    <title>Shape</title>
    <desc>Created with Sketch.</desc>
    <defs></defs>
    <g id="Page-1" stroke="none" stroke-width="1" fill="none" fill-rule="evenodd" sketch:type="MSPage">
        <g id="socials" sketch:type="MSLayerGroup" transform="translate(-204.000000, -300.000000)" fill="#DDDDDD">
            <path d="M245.5,318.6 C245.5,326.9 236.8,333.6 226,333.6 C215.2,333.6 206.5,326.9 206.5,318.6 C206.5,315.4 207.8,312.4 210.1,309.9 C208.8,307.3 209.1,302 210.5,300.7 C211.7,299.6 216.1,303.4 217.8,304.9 C220.3,304 223,303.5 226,303.5 C228.6,303.5 231.1,303.9 233.4,304.6 C235.3,302.9 239.3,299.6 240.5,300.6 C241.7,301.8 242.2,306.3 241.2,309.1 C243.9,311.8 245.5,315 245.5,318.6 L245.5,318.6 Z M231.5,333.6 C231.5,333.6 233.6,333.8 233.5,337.6 L233.5,346.6 C233.5,346.6 234.3,348.2 235.5,348.6 C235.5,348.6 236.6,349.5 234.5,349.6 C234.5,349.6 232.4,349.7 231.5,348.6 C230.6,347.5 230.5,346.6 230.5,345.6 L230.5,339.6 C230.5,339.6 229.8,337.6 229.5,339.6 L229.5,345.6 L229.5,347.6 C229.5,347.6 229.8,349.8 231.5,350.6 C231.5,350.6 227.8,351.5 226.5,346.6 L226.5,339.6 C226.1,338.4 225.5,339.6 225.5,339.6 L225.5,346.6 C224.2,351.5 220.5,350.6 220.5,350.6 C222.2,349.8 222.5,347.6 222.5,347.6 L222.5,345.6 L222.5,339.6 C222.2,337.6 221.5,339.6 221.5,339.6 L221.5,345.6 C221.5,346.6 221.4,347.5 220.5,348.6 C219.6,349.7 217.5,349.6 217.5,349.6 C215.4,349.5 216.5,348.6 216.5,348.6 C217.7,348.2 218.5,346.6 218.5,346.6 L218.5,342.6 C218.2,340.6 214.1,341.2 212.5,340.6 C210.9,340 208.2,336.3 207.5,333.6 C206.8,330.9 204.5,332.6 204.5,332.6 C206.2,329.4 208.5,331.6 208.5,331.6 C213.5,339.5 218.5,336.6 218.5,336.6 L218.5,337.2 C218.6,333.8 220.5,333.6 220.5,333.6 L225.5,333.6 L226,333.6 L226.5,333.6 L231.5,333.6 L231.5,333.6 Z" id="Shape" sketch:type="MSShapeGroup"></path>
        </g>
    </g>
</svg>