<?xml version="1.0" encoding="utf-8"?>
<!-- Generator: Adobe Illustrator 16.2.1, SVG Export Plug-In . SVG Version: 6.00 Build 0)  -->
<!DOCTYPE svg PUBLIC "-//W3C//DTD SVG 1.1//EN" "http://www.w3.org/Graphics/SVG/1.1/DTD/svg11.dtd">
<svg version="1.1" id="Layer_1" xmlns="http://www.w3.org/2000/svg" xmlns:xlink="http://www.w3.org/1999/xlink" x="0px" y="0px"
	 width="60px" height="60px" viewBox="0 0 60 60" enable-background="new 0 0 60 60" xml:space="preserve">
<path fill="#ffffff" d="M59.417,1.724c0-0.025,0.001-0.048,0-0.072c-0.003-0.047-0.005-0.093-0.011-0.138
	c-0.005-0.03-0.013-0.058-0.019-0.086c-0.02-0.116-0.052-0.228-0.097-0.337c-0.005-0.015-0.008-0.033-0.015-0.049
	c-0.002-0.007-0.004-0.014-0.008-0.021c-0.005-0.01-0.013-0.02-0.017-0.029c-0.062-0.128-0.134-0.249-0.225-0.359
	c-0.01-0.014-0.025-0.024-0.036-0.038c-0.028-0.033-0.062-0.063-0.095-0.096c-0.01-0.01-0.014-0.024-0.025-0.035
	c-0.007-0.007-0.017-0.008-0.024-0.015c-0.042-0.039-0.089-0.074-0.136-0.109c-0.017-0.013-0.029-0.03-0.048-0.043
	c-0.02-0.014-0.043-0.019-0.062-0.032c-0.034-0.021-0.062-0.045-0.098-0.064c-0.057-0.031-0.116-0.049-0.175-0.071
	c-0.025-0.012-0.048-0.025-0.074-0.034c-0.017-0.006-0.032-0.012-0.048-0.018C58.068,0.035,57.93,0.009,57.789,0
	c-0.032-0.002-0.063,0.001-0.097,0.001c-0.007,0-0.014,0-0.021,0c-0.031,0-0.062-0.002-0.092,0
	c-0.076,0.005-0.151,0.016-0.227,0.029c-0.036,0.007-0.072,0.013-0.109,0.023c-0.077,0.019-0.15,0.046-0.223,0.076
	c-0.029,0.011-0.059,0.021-0.087,0.035c-0.029,0.014-0.06,0.023-0.089,0.04c-0.004,0.002-0.01,0.003-0.015,0.005L1.485,30.797
	c-0.542,0.299-0.886,0.865-0.902,1.485c-0.015,0.62,0.3,1.203,0.826,1.529l16.274,10.102l3.334,14.725
	c0.139,0.611,0.593,1.102,1.192,1.286C22.377,59.976,22.549,60,22.721,60c0.438,0,0.867-0.165,1.196-0.472l8.445-7.919l16.979,8.217
	c0.504,0.242,1.095,0.232,1.59-0.034c0.492-0.267,0.829-0.752,0.903-1.308l7.573-56.512c0.002-0.008-0.001-0.016,0-0.023
	C59.418,1.874,59.418,1.799,59.417,1.724z M48.845,8.618L18.93,40.573L5.786,32.415L48.845,8.618z M23.752,54.89l-2.617-11.559
	l28.681-30.637L30.641,48.432L23.752,54.89z M48.691,55.627l-14.248-6.894l20.223-37.686L48.691,55.627z"/>
</svg>
