<?xml version="1.0" encoding="UTF-8" standalone="no"?>
<svg width="51px" height="48px" viewBox="0 0 51 48" version="1.1" xmlns="http://www.w3.org/2000/svg" xmlns:xlink="http://www.w3.org/1999/xlink" xmlns:sketch="http://www.bohemiancoding.com/sketch/ns">
    <!-- Generator: Sketch 3.4.4 (17249) - http://www.bohemiancoding.com/sketch -->
    <title>Shape</title>
    <desc>Created with Sketch.</desc>
    <defs></defs>
    <g id="Page-1" stroke="none" stroke-width="1" fill="none" fill-rule="evenodd" sketch:type="MSPage">
        <g id="socials" sketch:type="MSLayerGroup" transform="translate(-300.000000, -1.000000)" fill="#DDDDDD">
            <path d="M340.5,48.1 L340.5,28.5 C340.5,28.5 339.4,24.4 335.5,24.6 C331.6,24.8 330.3,25.4 328.5,27.5 L328.5,48.1 L318.5,48.1 L318.5,17.1 L328.5,17.1 L328.5,21.7 C328.5,21.7 331.8,15.3 338.5,15.8 C344.7,16.2 349.3,20 350.3,28.1 L350.5,28.1 L350.5,48.1 L340.5,48.1 L340.5,48.1 Z M306.5,13.1 C303.2,13.1 300.5,10.4 300.5,7.1 C300.5,3.8 303.2,1.1 306.5,1.1 C309.8,1.1 312.5,3.8 312.5,7.1 C312.5,10.4 309.8,13.1 306.5,13.1 L306.5,13.1 Z M311.5,48.1 L301.5,48.1 L301.5,17.1 L311.5,17.1 L311.5,48.1 L311.5,48.1 Z" id="Shape" sketch:type="MSShapeGroup"></path>
        </g>
    </g>
</svg>