<?xml version="1.0" encoding="UTF-8" standalone="no"?>
<svg width="51px" height="48px" viewBox="0 0 51 48" version="1.1" xmlns="http://www.w3.org/2000/svg" xmlns:xlink="http://www.w3.org/1999/xlink" xmlns:sketch="http://www.bohemiancoding.com/sketch/ns">
    <!-- Generator: Sketch 3.5.1 (25234) - http://www.bohemiancoding.com/sketch -->
    <title>linkedin</title>
    <desc>Created with Sketch.</desc>
    <defs></defs>
    <g id="Page-1" stroke="none" stroke-width="1" fill="none" fill-rule="evenodd" sketch:type="MSPage">
        <g id="linkedin" sketch:type="MSLayerGroup" fill="#C9D6DF">
            <g id="Page-1" sketch:type="MSShapeGroup">
                <g id="socials">
                    <path d="M40.5,47.1 L40.5,27.5 C40.5,27.5 39.4,23.4 35.5,23.6 C31.6,23.8 30.3,24.4 28.5,26.5 L28.5,47.1 L18.5,47.1 L18.5,16.1 L28.5,16.1 L28.5,20.7 C28.5,20.7 31.8,14.3 38.5,14.8 C44.7,15.2 49.3,19 50.3,27.1 L50.5,27.1 L50.5,47.1 L40.5,47.1 L40.5,47.1 L40.5,47.1 Z M6.5,12.1 C3.2,12.1 0.5,9.4 0.5,6.1 C0.5,2.8 3.2,0.1 6.5,0.1 C9.8,0.1 12.5,2.8 12.5,6.1 C12.5,9.4 9.8,12.1 6.5,12.1 L6.5,12.1 L6.5,12.1 Z M11.5,47.1 L1.5,47.1 L1.5,16.1 L11.5,16.1 L11.5,47.1 L11.5,47.1 L11.5,47.1 Z" id="Shape"></path>
                </g>
            </g>
        </g>
    </g>
</svg>