<?xml version="1.0" encoding="UTF-8" standalone="no"?>
<svg width="25px" height="22px" viewBox="0 0 25 22" version="1.1" xmlns="http://www.w3.org/2000/svg" xmlns:xlink="http://www.w3.org/1999/xlink" xmlns:sketch="http://www.bohemiancoding.com/sketch/ns">
    <!-- Generator: Sketch 3.5.1 (25234) - http://www.bohemiancoding.com/sketch -->
    <title>medium</title>
    <desc>Created with Sketch.</desc>
    <defs></defs>
    <g id="Page-1" stroke="none" stroke-width="1" fill="none" fill-rule="evenodd" sketch:type="MSPage">
        <g id="medium" sketch:type="MSLayerGroup">
            <g id="Page-1" sketch:type="MSShapeGroup">
                <g id="medium-icon">
                    <g id="Page-1">
                        <g id="Desktop-HD-Copy-11">
                            <g id="Mail-+-Twitter-+-Medium">
                                <g id="Medium">
                                    <g id="Icon">
                                        <g id="svg-logoNew-45px-p0" transform="translate(16.129032, 0.000000)" fill="#F0F5F9">
                                            <path d="M1.22983871,0.87837037 C0.849193548,0.695037037 0.537903226,0.88 0.537903226,1.29066667 L0.537903226,17.6228148 L7.48629032,20.9741481 C8.25080645,21.348963 8.87096774,21.0882222 8.87096774,20.4037778 L8.87096774,4.67785185 C8.87096774,4.61266667 8.83064516,4.55562963 8.77096774,4.52303704 L1.23064516,0.888962963 L1.23064516,0.880814815 L1.22983871,0.87837037 L1.22983871,0.87837037 L1.22983871,0.87837037 Z" id="Shape"></path>
                                        </g>
                                        <g id="svg-logoNew-45px-p1" transform="translate(8.064516, 0.000000)" fill="#C9D6DF">
                                            <path d="M0.268548387,13.6041481 L8.19596774,1.18066667 C8.42016129,0.830296296 8.91370968,0.691777778 9.29274194,0.871037037 L16.8443548,4.51325926 C16.8927419,4.5377037 16.9104839,4.59474074 16.8822581,4.63548148 L8.6016129,17.6244444 L0.268548387,13.6057778 L0.268548387,13.6041481 L0.268548387,13.6041481 L0.268548387,13.6041481 L0.268548387,13.6041481 Z" id="Shape"></path>
                                        </g>
                                        <g id="svg-logoNew-45px-p2" transform="translate(0.000000, 0.814815)" fill="#7B92A1">
                                            <path d="M1.15322581,0.285185185 C0.519354839,-0.0203703704 0.304032258,0.206962963 0.675806452,0.79037037 L8.33306452,12.7893333 L16.666129,16.808 L8.3516129,3.77666667 C8.33951613,3.75792593 8.32258065,3.74244444 8.30322581,3.73266667 L1.15322581,0.286 L1.15322581,0.285185185 L1.15322581,0.285185185 L1.15322581,0.285185185 Z" id="Shape"></path>
                                        </g>
                                        <g id="svg-logoNew-45px-p3" transform="translate(0.000000, 0.814815)" fill="#52616B">
                                            <path d="M8.33306452,19.5824444 C8.33306452,20.2668889 7.81451613,20.5765185 7.17983871,20.2701481 L0.691935484,17.1412593 C0.311290323,16.9587407 0,16.4731111 0,16.0616296 L0,0.725185185 C0,0.17762963 0.415322581,-0.0700740741 0.923387097,0.175185185 L8.28870968,3.72777778 C8.31612903,3.74 8.33306452,3.76688889 8.33306452,3.79622222 L8.33306452,19.5791852 L8.33306452,19.5824444 L8.33306452,19.5824444 L8.33306452,19.5824444 Z" id="Shape"></path>
                                        </g>
                                    </g>
                                </g>
                            </g>
                        </g>
                    </g>
                </g>
            </g>
        </g>
    </g>
</svg>