<?xml version="1.0" encoding="UTF-8" standalone="no"?>
<svg width="41px" height="50px" viewBox="0 0 41 50" version="1.1" xmlns="http://www.w3.org/2000/svg" xmlns:xlink="http://www.w3.org/1999/xlink" xmlns:sketch="http://www.bohemiancoding.com/sketch/ns">
    <!-- Generator: Sketch 3.4.4 (17249) - http://www.bohemiancoding.com/sketch -->
    <title>Shape</title>
    <desc>Created with Sketch.</desc>
    <defs></defs>
    <g id="Page-1" stroke="none" stroke-width="1" fill="none" fill-rule="evenodd" sketch:type="MSPage">
        <g id="socials" sketch:type="MSLayerGroup" transform="translate(-206.000000, -100.000000)" fill="#DDDDDD">
            <path d="M246.5,148 L244.9,149.1 L226.7,140.8 L208.3,115.9 C205.4,112 207,106.1 211.7,102.6 C216.4,99.1 222.6,99.4 225.5,103.3 L243.9,128.2 L244,128.1 L246.5,148 L246.5,148 Z M240.9,143.7 L242.5,142.6 L241.8,132.2 C240.6,132.3 234.4,132.5 233.1,131.5 C233.6,133 231.6,138.8 231.2,140 L240.9,143.7 L240.9,143.7 Z M228.6,138.3 L228.6,138.3 C231.1,134.1 230.6,129.6 230.6,129.6 L219.7,114.8 C217.7,116.5 216.3,118.7 215.7,120.9 L228.6,138.3 L228.6,138.3 Z M213.5,104.9 C210.6,107 209.3,110.3 210,112.8 C210.7,110.5 212.3,108.2 214.6,106.5 C217,104.8 219.6,103.9 222,104 C219.9,102.5 216.4,102.8 213.5,104.9 L213.5,104.9 Z M224.2,106.3 C221.7,106.2 218.9,107 216.4,108.8 C213.9,110.6 212.3,113 211.7,115.5 L214,118.6 C214.6,116.2 216.2,113.7 218.7,111.9 C221.2,110.1 224,109.3 226.5,109.4 L224.2,106.3 L224.2,106.3 Z M221.2,113.7 L232.1,128.5 C232.1,128.5 236.3,130.3 241,129.2 L241,129.2 L228.2,111.8 C226,111.7 223.5,112.3 221.2,113.7 L221.2,113.7 Z" id="Shape" sketch:type="MSShapeGroup"></path>
        </g>
    </g>
</svg>