<?xml version="1.0" encoding="UTF-8" standalone="no"?>
<svg width="36px" height="48px" viewBox="0 0 36 48" version="1.1" xmlns="http://www.w3.org/2000/svg" xmlns:xlink="http://www.w3.org/1999/xlink" xmlns:sketch="http://www.bohemiancoding.com/sketch/ns">
    <!-- Generator: Sketch 3.5.1 (25234) - http://www.bohemiancoding.com/sketch -->
    <title>Shape</title>
    <desc>Created with Sketch.</desc>
    <defs></defs>
    <g id="Page-1" stroke="none" stroke-width="1" fill="none" fill-rule="evenodd" sketch:type="MSPage">
        <g id="legal_icons" sketch:type="MSLayerGroup" transform="translate(-262.000000, -256.000000)" fill="#52616B">
            <path d="M293,304 L267,304 C264.2,304 262,301.8 262,299 L262,261 C262,258.2 264.2,256 267,256 L288,256 L288,256 L288,256 C288.2,256 288.4,256.1 288.5,256.2 C288.6,256.2 288.6,256.3 288.7,256.3 L297.6,265.3 L297.6,265.3 L297.6,265.3 C297.6,265.3 297.6,265.3 297.6,265.4 C297.7,265.5 297.7,265.6 297.8,265.7 C297.9,265.8 297.9,266 297.9,266.1 L297.9,299.1 C298,301.8 295.8,304 293,304 L293,304 Z M289,259 L289,262 C289,263.7 290.3,265 292,265 L295,265 L289,259 L289,259 Z M296,266 L292,266 C289.4,266 288,264.6 288,262 L288,258 L267,258 C265.3,258 264,259.3 264,261 L264,299 C264,300.7 265.3,302 267,302 L293,302 C294.7,302 296,300.7 296,299 L296,266 L296,266 Z M291,287 L269,287 C268.4,287 268,286.6 268,286 C268,285.4 268.4,285 269,285 L291,285 C291.6,285 292,285.4 292,286 C292,286.6 291.6,287 291,287 L291,287 Z M291,280 L269,280 C268.4,280 268,279.6 268,279 C268,278.4 268.4,278 269,278 L291,278 C291.6,278 292,278.4 292,279 C292,279.6 291.6,280 291,280 L291,280 Z M291,273 L269,273 C268.4,273 268,272.6 268,272 C268,271.4 268.4,271 269,271 L291,271 C291.6,271 292,271.4 292,272 C292,272.6 291.6,273 291,273 L291,273 Z M269,292 L281,292 C281.6,292 282,292.4 282,293 C282,293.6 281.6,294 281,294 L269,294 C268.4,294 268,293.6 268,293 C268,292.4 268.4,292 269,292 L269,292 Z" id="Shape" sketch:type="MSShapeGroup"></path>
        </g>
    </g>
</svg>