<?xml version="1.0" encoding="UTF-8" standalone="no"?>
<svg width="51px" height="42px" viewBox="0 0 51 42" version="1.1" xmlns="http://www.w3.org/2000/svg" xmlns:xlink="http://www.w3.org/1999/xlink" xmlns:sketch="http://www.bohemiancoding.com/sketch/ns">
    <!-- Generator: Sketch 3.4.4 (17249) - http://www.bohemiancoding.com/sketch -->
    <title>Shape</title>
    <desc>Created with Sketch.</desc>
    <defs></defs>
    <g id="Page-1" stroke="none" stroke-width="1" fill="none" fill-rule="evenodd" sketch:type="MSPage">
        <g id="socials" sketch:type="MSLayerGroup" transform="translate(-100.000000, -4.000000)" fill="#DDDDDD">
            <path d="M145.5,11.1 L150.5,10.1 C150.5,10.1 146.3,14.8 145.5,15.1 L145.5,15.1 C145.4,17.4 145.5,18.1 145.5,18.1 C135.9,59.3 100.5,41.1 100.5,41.1 C113.4,41.4 114.5,36.1 114.5,36.1 C107,35 105.5,30.1 105.5,30.1 C108.1,31.3 109.5,29.1 109.5,29.1 C101.4,27 102.5,19.1 102.5,19.1 C103.9,20.3 106.1,20.8 107.4,21 C106.5,19.9 98.9,10.8 103.5,6.1 C103.5,6.1 109.1,16.1 123.8,17 L124.8,16.8 C124.6,16.1 124.6,15.4 124.6,14.6 C124.6,8.8 129.3,4.1 135.1,4.1 C142.1,4.1 143.6,8.1 143.6,8.1 L148.6,5.1 C148.5,5.1 148,10.1 145.5,11.1 L145.5,11.1 Z" id="Shape" sketch:type="MSShapeGroup"></path>
        </g>
    </g>
</svg>