<?xml version="1.0" encoding="UTF-8" standalone="no"?>
<svg width="51px" height="42px" viewBox="0 0 51 42" version="1.1" xmlns="http://www.w3.org/2000/svg" xmlns:xlink="http://www.w3.org/1999/xlink" xmlns:sketch="http://www.bohemiancoding.com/sketch/ns">
    <!-- Generator: Sketch 3.5.1 (25234) - http://www.bohemiancoding.com/sketch -->
    <title>twitter</title>
    <desc>Created with Sketch.</desc>
    <defs></defs>
    <g id="Page-1" stroke="none" stroke-width="1" fill="none" fill-rule="evenodd" sketch:type="MSPage">
        <g id="twitter" sketch:type="MSLayerGroup" fill="#C9D6DF">
            <g id="Page-1" sketch:type="MSShapeGroup">
                <g id="socials">
                    <path d="M45.5,7.1 L50.5,6.1 C50.5,6.1 46.3,10.8 45.5,11.1 L45.5,11.1 C45.4,13.4 45.5,14.1 45.5,14.1 C35.9,55.3 0.5,37.1 0.5,37.1 C13.4,37.4 14.5,32.1 14.5,32.1 C7,31 5.5,26.1 5.5,26.1 C8.1,27.3 9.5,25.1 9.5,25.1 C1.4,23 2.5,15.1 2.5,15.1 C3.9,16.3 6.1,16.8 7.4,17 C6.5,15.9 -1.1,6.8 3.5,2.1 C3.5,2.1 9.1,12.1 23.8,13 L24.8,12.8 C24.6,12.1 24.6,11.4 24.6,10.6 C24.6,4.8 29.3,0.1 35.1,0.1 C42.1,0.1 43.6,4.1 43.6,4.1 L48.6,1.1 C48.5,1.1 48,6.1 45.5,7.1 L45.5,7.1 L45.5,7.1 Z" id="Shape"></path>
                </g>
            </g>
        </g>
    </g>
</svg>